# xmcd
#
# Track frame offsets:
#   150
#   21260
#   36443
#   54181
#   70392
#   86545
#   99393
#   111584
#   122819
#   140144
#   156982
#   175041
#   188906
#   201046
#   218674
#   235191
#   247500
#   261084
#   273110
#   287438
#   303792
#   321133
#   333814
#
# Disc length: 4618 seconds
#
# Revision: 0
# Processed by: cddbd v1.5.1PL0 Copyright (c) Steve Scherf et al.
# Submitted via: Media_Universe 3.0
#
DISCID=40120817
DTITLE=Clint Black - The Hard Way and No Time To Kill
DYEAR=1900
DGENRE=Country
TTITLE0=We Tell Ourselves
TTITLE1=The Hard Way
TTITLE2=Something To Cry About
TTITLE3=Buying Time
TTITLE4=When My Ship Comes In
TTITLE5=A Woman Has Her Way
TTITLE6=There Was Never A Train
TTITLE7=The Good Old Days
TTITLE8=Burn One Down
TTITLE9=Wake Up Yesterday
TTITLE10=No Time To Kill
TTITLE11=Thinkin Again
TTITLE12=A Good Run Of Bad Luck
TTITLE13=State Of Mind
TTITLE14=A Bad Goodbye
TTITLE15=Back To Back
TTITLE16=Half The Man
TTITLE17=I'll Take Texas
TTITLE18=Happiness Alone
TTITLE19=Tuckered Out
TTITLE20=Desperado
TTITLE21=Killin' Time
TTITLE22=Walkin Away
EXTD=
EXTT0=
EXTT1=
EXTT2=
EXTT3=
EXTT4=
EXTT5=
EXTT6=
EXTT7=
EXTT8=
EXTT9=
EXTT10=
EXTT11=
EXTT12=
EXTT13=
EXTT14=
EXTT15=
EXTT16=
EXTT17=
EXTT18=
EXTT19=
EXTT20=
EXTT21=
EXTT22=
PLAYORDER=
